# xmcd
#
# Track frame offsets: 
#        151
#        17270
#        35331
#        54270
#        68085
#        88526
#        101335
#        114918
#        135827
#        153550
#        166899
#        189518
#
# Disc length: 2744 seconds
#
# Revision: 0
# Processed by: cddbd v1.5.1PL0 Copyright (c) Steve Scherf et al.
# Submitted via: ExactAudioCopy v0.95a5
#
DISCID=800ab60c
DTITLE=Mel Jones and his Bag O' Bones - Bones to Pick
DYEAR=2004
DGENRE=Blues
TTITLE0=You Can't Fool Me
TTITLE1=Sheik of Araby
TTITLE2=Hey Good Lookin'
TTITLE3=My Babe
TTITLE4=Plumbing Blues
TTITLE5=Racetrack Blues
TTITLE6=Nobody Knows You When You're Down and Out
TTITLE7=Oh Lady Be Good
TTITLE8=Dime Store Glasses
TTITLE9=Choo Choo Boogie
TTITLE10=Back When I Had Money
TTITLE11=Got My Mojo Workin'
EXTD=
EXTT0=
EXTT1=
EXTT2=
EXTT3=
EXTT4=
EXTT5=
EXTT6=
EXTT7=
EXTT8=
EXTT9=
EXTT10=
EXTT11=
PLAYORDER=
